<?xml version="1.0" encoding="UTF-8"?>
<svg id="Camada_3" xmlns="http://www.w3.org/2000/svg" version="1.1" viewBox="8638 8192 300 120" overflow="visible">
  <!-- Generator: Adobe Illustrator 30.3.0, SVG Export Plug-In . SVG Version: 2.1.3 Build 182) -->
  <g>
    <path d="M8911.19,8290.04l-.12-.52-.57-1.77.19-.53c.19-.18.38-.53.38-.71l.18-1.12-.18-.78-.2-.63c-.32-.55-.98-1.08-2.43-1.28-.37-.09-.75-.09-1.13-.09l-.94-.09c-.94-.09-1.32-.09-2.26-.09h-2.44l-2.63.09-3.95.09-2.82-.09h-4.33l-1.88.09-5.07-.18h-2.07l-1.04.04c-.56-.04-.95-.04-1.66-.04h-2.44l-2.63.09-3.95.09-2.82-.09h-3.32l-1.5-.18c-.57-.09-1.51,0-2.07,0h-3.01l-2.07.09h-1.38l-4.7.18-2.45.18-4.33-.09-1.69.09-4.7-.27-1.5-.18c-.57-.09-1.51,0-2.07,0h-3.01l-2.07.09-4.14.27-2.11.17-.4-.02c-.22-.06-.46-.11-.73-.15-.37-.09-.75-.09-1.13-.09l-.94-.09c-.94-.09-1.32-.09-2.26-.09h-2.44l-2.63.09-3.95.09-2.82-.09h-4.33l-1.88.09-1.71-.06-.62-.03h-.22l-2.53-.09h-2.07l-1.04.04c-.28-.02-.53-.03-.78-.03h-.13s-.05,0-.05,0c-.2,0-.43,0-.7,0h-2.44l-2.63.09-3.95.09-2.82-.09h-3.32l-1.5-.18c-.57-.09-1.51,0-2.07,0h-3.01l-2.07.09h-1.38l-1.08.04-.87-.04-4.52.27c-.31.02-.62.05-.95.08l-4.06-.08-1.69.09-4.7-.27-1.5-.18c-.57-.09-1.51,0-2.07,0h-3.01l-2.07.09-4.14.27-2.11.17-4.22-.17h-1.88l-3.76-.18c-.75,0-1.13.09-1.88.09h-.56l-2.56.21-2.69.05-1.71-.17h-.57c-.29-.04-.61-.04-.93-.03l-3.2-.06-1.88-.09h-4.89l-1.88-.09-3.12.18-2.02-.1c-.75,0-1.13.09-1.88.09h-.56l-4.33.36-2.63-.27-4.7-.09-1.88-.09h-4.89l-1.88-.09-4.52.27c-1.32.09-2.82.27-4.14.98-.32.2-.57.41-.74.61l.17.95-.19.89-.19,1.42.19.8v.78l.19,1.03-.19.89-.19,1.42.19.8v1.08c.1.11.22.21.38.3,1.13.71,3.2,1.42,3.2,1.42l5.08.09,2.26.09,4.89.09,2.07-.27h5.27l1.69-.27,4.7.18,1.32-.14c.37.14.62.23.62.23l5.08.09,2.26.09,4.89.09,1.23-.16c1.06.06,2.09.04,3.03-.02l.85-.09h2.23l1.11-.17,4.27.17,1.69.18c.38,0,.94.09,1.32.09l4.14.09,2.07-.18,5.27-.09,4.89.27h2.26c.38,0,1.13-.09,1.51-.09l3.57-.27h1.19l1.69.18c.38,0,.94.09,1.32.09l4.14.09,2.07-.18,1.28-.02,1.1.02h1.88l1.24-.08,4.66.25h2.26c.38,0,1.13-.09,1.51-.09l3.57-.27h2.26l3.47.08h.04c.94.18,2.26.18,3.2.18h2.07l1.32.09c1.13.09,1.69.18,2.82.09l2.64-.09h2.26c.6.05,1.15-.01,1.65-.13l2.3.04,1.23-.16c1.06.06,2.09.04,3.03-.02l.85-.09h2.23l.56-.09h.64l1.13.18c.94.18,2.26.18,3.2.18h2.07l1.32.09c1.13.09,1.69.18,2.82.09l2.64-.09h2.26c.79.06,1.49-.05,2.1-.25l1.15-.02,4.89.27h2.26c.38,0,1.13-.09,1.51-.09l3.57-.27h1.19l1.69.18c.38,0,.94.09,1.32.09l4.14.09,2.07-.18,1.28-.02,1.1.02h1.88l1.24-.08,4.66.25h2.26c.38,0,1.13-.09,1.51-.09l3.57-.27h2.26l3.47.08h.04c.94.18,2.26.18,3.2.18h2.07l1.32.09c1.13.09,1.69.18,2.82.09l2.64-.09h2.26c.92.07,1.72-.1,2.39-.35h.12l4.33-.09h5.64l1.13.18c.94.18,2.26.18,3.2.18h2.07l1.32.09c1.13.09,1.69.18,2.82.09l2.64-.09h2.26c1.13.09,2.07-.18,2.82-.53.57-.35.94-.98.75-1.68l-.38-2.13.38-.8.31-1.22Z" fill="#fff004"/>
    <g>
      <path d="M8684.09,8251.88c-.18-2.84.04-5.68.05-8.53-.06-1.6.24-3.15-.01-4.72-.11-.68-.05-1.22-.12-1.95-.08-.33.3-1.93-.39-1.35-.59.43-1.19.98-1.7,1.48-.73.52-1.57,1.06-2.19,1.75-1.13.77-1.96,1.41-2.82,2.36-.96.71-1.64,1.72-2.64,2.37-.95.5-2.03,1.37-3.02,1.61-1.03-.46-1.32-.94-1.98-1.37-.76-.53-1.12-.86-1.87-1.48-1.55-1.14-3.01-2.68-4.5-3.94-.78-.47-1.72-1.14-2.28-1.75-.42-.29-1.6-1.96-1.77-.95-.11,1.23.06,2.26.05,3.48-.05.58-.17,1.05-.15,1.63-.1,1.04.12,1.88.14,2.86-.04.87-.08,1.81-.05,2.68-.14,1.41-.01,2.53.11,4.11.03,2.16.05,4.33,0,6.5-.06.53-.16,1.04-.09,1.59.08.82.12,1.54,1.03,1.39,1.31-.21,2.51.21,3.85.01.25-.03.55-.02.66-.26.18-.85.05-1.85.08-2.79.12-1.93.25-3.97.09-5.9,0-.88,0-3.5.39-3.8.11-.09.43.38.73.55.57.31,1.19.93,1.67,1.24,1.13.89,2.1,1.81,3.31,2.61.3.23.66.57,1.03.57.59-.21,1.22-1.16,1.73-1.55.69-.58,1.42-1.01,2.16-1.6.46-.3,1.03-.81,1.61-1.07.23-.1.81-.68,1.02-.41.29.41.2,1.12.2,1.41,0,2.29,0,4.49-.06,6.79-.06,1.26-.1,2.39-.05,3.61.01.26.06.43.17.53.63.41,1.38.03,2.18.06.39,0,.73-.05,1.12-.06.57-.07,1.54.25,2.06-.13.41-.85.1-1.98.19-2.92.03-1.55.45-3.09.07-4.55l-.02-.1Z" fill="#fff004"/>
      <path d="M8716.84,8257.4c-.18-.88.53-2.65-.7-2.71-.84-.05-2.01.03-3.08.12-1.35-.14-2.74-.02-4.09-.08-.51,0-1.22.06-1.66-.05-.23-.07-.88.12-1-.05s.07-.69,0-1.02c-.13-.69.1-1.68.12-2.33.02-.41-.13-.85.04-1.24.07-.14-.06-.7.06-.83.14-.17.82-.1,1.19-.1.95-.09,1.95.08,2.87.1,1.13.02,2.3-.23,3.45-.04.3.03.69,0,.75-.36.15-.91.16-1.88.08-2.82,0-.32,0-.7-.02-.94.03-.68-1.45-.28-2.15-.32-1.38-.11-2.94-.14-4.4-.16-.36.02-.77.11-1.09.02-.22-.07-.65.1-.87-.08s-.13-1.03-.06-1.33c.18-.95-.17-2.23.02-3.01.04-.15-.07-.58.02-.69.18-.11.42.1.93,0,1.27-.24,2.67.03,3.9.04.56,0,1.05.08,1.61.11.99.02,2.48.03,3.39-.25.37-.44.24-1.4.36-1.85.01-.65-.08-1.52-.23-2.32-.15-.52-.68-.55-1.2-.64-.85-.12-1.63.02-2.47.06-1.48-.13-2.92-.04-4.36-.07-1.72-.15-3.43.25-5.14.07-.83-.07-1.97-.22-2.72.18-.11.13-.07.42-.05.71,0,.89-.06,1.81-.09,2.7-.21,3.23.1,6.6-.06,9.8-.18,2.66.31,5.41.04,8.07-.03,1.14-.35,2.33-.01,3.27.3.31,1.62.2,2.1.3,1.53-.06,2.93.02,4.51.06.96.04,2.03-.25,2.96-.04,1.18.19,2.39-.08,3.59-.17,1.15.08,2.41.38,3.43-.16.25-.31.06-1.26.04-1.81v-.13Z" fill="#fff004"/>
      <path d="M8747.5,8255.65c.06-.92-.84-.84-1.52-.79-1.55-.31-3.03.14-4.61-.09-.55-.18-1.24,0-1.73,0-.26-.17-.82.1-.97-.1-.35-.79-.12-2.06-.15-3.07-.16-1.24-.05-2.53.07-3.69-.11-4.17-.04-8.41.03-12.5,0-.17,0-.42-.09-.55-.18-.26-.64-.17-.95-.19-1.34-.11-2.49-.13-3.83-.03-.43-.04-.88.03-1.11.45-.53,1.39-.19,3.57-.14,5.11.23,1.35-.05,2.62-.01,3.97-.23,1.66.07,3.13.07,4.75-.18,1.74-.24,3.51.01,5.28-.11.99-.19,1.97-.1,2.96.07.68-.08,1.55.16,2.17.5.39,1.32.18,1.94.32,1.07.12,2.37-.04,3.53-.12,1.58-.08,2.99.03,4.53.12.99-.1,2.22-.11,3.33.02.54-.02,1.4.17,1.67-.32.1-1.08-.05-2.46-.12-3.55v-.13Z" fill="#fff004"/>
      <path d="M8767.67,8259.52c.17-.07.27-.18.34-.32.2-.42.04-1.07.02-1.52-.09-1.17.06-2.47.17-3.66.1-.97-.21-2.01-.11-2.95.07-.33-.08-.87.18-1.12.28-.28.98-.24,1.41-.13.78.07,1.5-.18,2.28-.07,1.13.23,2.34-.03,3.46-.12.2-.04.4-.09.41-.33.02-.84-.03-1.77.07-2.62.03-.52.08-1.2-.19-1.47-.66-.31-3.44-.23-4.45-.13-.7-.08-1.14.05-1.84-.08-.46-.08-1.06.15-1.21-.21-.15-.36-.04-1.56-.08-1.98-.01-1.3-.25-2.8.25-3.17.41-.39,1.42-.23,2.55-.16,1.8-.14,3.87.26,5.64-.06.28-.05.68-.09.74-.43-.04-.62-.09-1.72.02-2.38.05-.6.22-1.37-.17-1.74-.1-.1-.24-.16-.42-.19-1.8-.07-4.05-.24-5.85-.07-1.47.07-2.91-.16-4.37-.13-1.23.18-2.63.07-3.87.13-.87.1-.44.58-.58,1.56-.05,2.42-.09,4.49-.02,6.85-.12,2.06.25,4.19-.09,6.25-.1,2.02.32,3.98.08,6.04-.08.85-.03,1.7-.03,2.55.06.6-.15,1.16.05,1.59.94.42,2.2-.06,3.17.06.74-.05,1.6.18,2.37.06l.09-.03Z" fill="#fff004"/>
      <path d="M8799.47,8234.72c-1.45-.07-3.12-.23-4.62-.02-.87,0-1.66-.47-1.51.85.06,1.4.04,3.25.01,4.69.16,1.25.17,2.49-.04,3.71-.1,1.05.24,2.16.19,3.22,0,.99-.05,1.86,0,2.85-.07.67-.03,1.17,0,1.85.01.81-.17,1.84-.08,2.57.11.51.12,1.11.02,1.63,0,1-.36,2.58.2,3.35.26.18.61.13.93.12,1.42-.14,2.73,0,4.18,0,.18-.02.45-.03.56-.16.25-.33.16-1.48.21-1.87-.25-2.22-.17-4.43-.08-6.65-.15-.71.02-1.58.08-2.27.05-1.11-.12-2.26.04-3.36-.14-1.16-.13-2.54-.07-3.67-.07-1.18-.08-2.18-.09-3.41-.04-1.06.4-2.29.13-3.36l-.06-.06Z" fill="#fff004"/>
      <path d="M8839.26,8254.77c.86-1.13,1.63-2.31,1.83-3.73.49-1.28.62-2.62.54-3.98.07-1.76-.24-3.64-.84-5.26-.8-1.19-1.3-2.29-2.41-3.25-.65-.57-1.16-1.39-1.83-1.94-.97-.54-2.16-1.29-3.25-1.66-1.25-.16-2.47-.78-3.7-.85-1.79.06-3.56,0-5.26.59-1.02.26-1.89.4-2.59,1.04-1.69.83-3.19,2.16-4.32,3.68-.74,1.08-1.17,2.09-1.64,3.31-.64,1.17-.63,2.49-.67,3.81-.3,2.58.41,5.16,1.76,7.37,1.15,1.66,2.43,3.23,4.14,4.29,1.51.93,3.5,1.34,5.16,1.81,2.68.37,5.44-.04,7.94-1.14,1.24-.37,2.22-.87,3.12-1.8.94-.61,1.43-1.35,1.99-2.2l.07-.11ZM8835.01,8250.51c-.12.22-.6.78-.78,1.11-.19.35-.27.53-.69.82-.58.41-1.49,1.24-2.09,1.54-1.59.62-3.43.92-5.07.51-1.4-.5-2.73-1.14-3.59-2.44-1.4-2.15-2.31-5.04-1.34-7.55.37-1.09.83-2.1,1.8-2.81.37-.54.76-.78,1.38-1.1.96-.52,1.94-.97,3.06-1.01.53-.02.68.13,1.21.13.43.03.95.01,1.36.11.47.14,1.12.35,1.62.5,1.64.82,2.97,2.79,3.43,4.55.12,1.92.32,3.66-.24,5.54l-.04.08Z" fill="#fff004"/>
      <path d="M8876.14,8258.7c-.51-.77-1.06-1.75-1.4-2.76-.74-1.54-1.85-3.09-2.29-4.75.02-.34.07-1.05.28-1.31.41-.32,1-.31,1.43-.78.97-.88,1.58-1.94,2.16-3.08.47-1.25.52-2.32.4-3.6-.31-1.95-1.01-4.04-2.42-5.48-1.06-.87-2.16-1.11-3.43-1.71-.79-.3-1.62-.26-2.48-.48-1.32-.3-2.63-.21-3.93-.12-2.22.19-4.36.04-6.57-.04-.75,0-.65.85-.67,1.38-.06,1.4.07,2.44.15,3.83.09.8-.15,1.49-.24,2.29-.1.96.13,1.98.13,2.93-.08.76.04,1.64.08,2.4-.07,1.99-.34,3.48-.03,5.41-.06.65-.12,1.11-.02,1.76.03.67-.1,1.29-.05,1.96.13.97-.19,2.11.3,2.9.83.55,1.97,0,2.89.02,1-.09,1.99.38,2.6-.23.32-.77-.07-1.72,0-2.56.03-1.37-.11-2.94.15-4.28.18-.39.69-.97,1.15-1.07.85-.08,2.12.12,2.66.84.37.66.75,1.78,1.21,2.44.96,1.53,1.26,3.38,2.46,4.8.35.4.87.2,1.47.25,1.33-.13,2.59.06,3.92-.03.55-.1.41-.4.13-.83l-.05-.09ZM8870.48,8244.03c-.03.11-.14.8-.23.96-.26.46-.78.88-1.2,1.23-.45.35-1.28.29-1.82.39-.84.2-1.84.16-2.68.23-.39,0-.4.08-.58-.15-.27-.39-.79-.7-.81-1.22-.07-1.07.1-1.86,0-2.96-.03-.81-.1-1.55.13-2.23.13-.18.91-.61,1.09-.72.18-.09.5.06.74.06.24,0,.61.02.91-.02,1.07-.19,2.07.03,2.99.56.41.31.95.69,1.12,1.14.11.4.37.82.32,1.24-.05.51,0,.9.01,1.42v.07Z" fill="#fff004"/>
      <path d="M8909.35,8257.4c-.18-.88.53-2.65-.7-2.71-.84-.05-2.01.03-3.08.12-1.35-.14-2.74-.02-4.09-.08-.51,0-1.22.06-1.66-.05-.23-.07-.88.12-1-.05s.07-.69,0-1.02c-.13-.69.1-1.68.12-2.33.02-.41-.13-.85.04-1.24.07-.14-.06-.7.06-.83.14-.17.82-.1,1.19-.1.95-.09,1.95.08,2.87.1,1.13.02,2.3-.23,3.45-.04.3.03.69,0,.75-.36.15-.91.16-1.88.08-2.82,0-.32,0-.7-.02-.94.03-.68-1.45-.28-2.15-.32-1.38-.11-2.94-.14-4.4-.16-.36.02-.77.11-1.09.02-.22-.07-.65.1-.87-.08s-.13-1.03-.06-1.33c.18-.95-.17-2.23.02-3.01.04-.15-.07-.58.02-.69.18-.11.42.1.93,0,1.27-.24,2.67.03,3.9.04.56,0,1.05.08,1.61.11.99.02,2.48.03,3.39-.25.37-.44.24-1.4.36-1.85.01-.65-.08-1.52-.23-2.32-.15-.52-.68-.55-1.2-.64-.85-.12-1.63.02-2.47.06-1.48-.13-2.92-.04-4.36-.07-1.72-.15-3.43.25-5.14.07-.83-.07-1.97-.22-2.72.18-.11.13-.07.42-.05.71,0,.89-.06,1.81-.09,2.7-.21,3.23.1,6.6-.06,9.8-.18,2.66.31,5.41.04,8.07-.03,1.14-.35,2.33-.01,3.27.3.31,1.62.2,2.1.3,1.53-.06,2.93.02,4.51.06.96.04,2.03-.25,2.96-.04,1.18.19,2.39-.08,3.59-.17,1.15.08,2.41.38,3.43-.16.25-.31.06-1.26.04-1.81v-.13Z" fill="#fff004"/>
    </g>
  </g>
</svg>
