<?xml version="1.0" encoding="UTF-8"?>
<svg id="Camada_1" xmlns="http://www.w3.org/2000/svg" version="1.1" viewBox="0 0 841.89 595.28">
  <!-- Generator: Adobe Illustrator 30.3.0, SVG Export Plug-In . SVG Version: 2.1.3 Build 182)  -->
  <path d="M309.64,302.87c-.2-3.17.05-6.33.06-9.51-.06-1.78.26-3.51-.01-5.27-.13-.76-.06-1.36-.13-2.18-.08-.37.34-2.15-.44-1.51-.66.48-1.33,1.09-1.89,1.66-.81.58-1.75,1.18-2.44,1.95-1.26.86-2.18,1.57-3.15,2.63-1.07.79-1.83,1.92-2.94,2.65-1.05.55-2.26,1.52-3.37,1.8-1.15-.51-1.48-1.05-2.21-1.53-.85-.59-1.25-.95-2.09-1.65-1.73-1.27-3.36-2.99-5.03-4.4-.87-.52-1.92-1.28-2.54-1.96-.47-.33-1.79-2.19-1.98-1.06-.12,1.37.06,2.52.06,3.88-.06.65-.19,1.17-.17,1.81-.11,1.16.13,2.1.16,3.19-.05.97-.09,2.02-.05,2.99-.15,1.57-.01,2.83.12,4.58.03,2.41.06,4.83,0,7.25-.07.59-.17,1.16-.1,1.77.08.92.13,1.72,1.15,1.55,1.46-.23,2.81.24,4.29.01.28-.03.61-.02.74-.28.2-.95.06-2.06.09-3.12.14-2.15.28-4.43.1-6.59,0-.99.01-3.9.44-4.24.12-.1.48.42.82.61.64.35,1.33,1.04,1.86,1.39,1.26.99,2.35,2.02,3.7,2.92.34.25.74.64,1.14.63.66-.23,1.36-1.29,1.93-1.73.77-.65,1.58-1.13,2.41-1.79.52-.33,1.15-.9,1.79-1.19.26-.12.9-.76,1.14-.46.32.45.22,1.25.23,1.57,0,2.56,0,5.01-.06,7.58-.07,1.41-.11,2.66-.05,4.03.01.3.07.48.19.59.7.45,1.54.04,2.43.07.43-.01.81-.05,1.25-.07.64-.07,1.72.28,2.3-.14.45-.95.11-2.21.21-3.26.04-1.73.5-3.44.08-5.08l-.02-.11Z" fill="#fff004"/>
  <path d="M346.18,309.04c-.2-.98.59-2.96-.78-3.02-.94-.06-2.24.04-3.44.13-1.51-.16-3.06-.02-4.57-.09-.57,0-1.37.06-1.85-.05-.25-.08-.98.13-1.12-.06s.07-.77,0-1.14c-.15-.77.11-1.87.13-2.6.03-.46-.15-.94.05-1.39.07-.16-.06-.78.06-.93.15-.19.91-.11,1.33-.11,1.06-.1,2.18.09,3.21.12,1.26.02,2.56-.26,3.85-.05.34.03.77,0,.84-.4.17-1.01.18-2.1.09-3.15,0-.36,0-.78-.02-1.04.03-.76-1.62-.31-2.4-.36-1.53-.12-3.28-.16-4.91-.18-.4.03-.86.12-1.21.02-.24-.07-.73.11-.97-.09s-.14-1.14-.07-1.48c.21-1.06-.19-2.49.03-3.36.04-.17-.07-.65.02-.77.2-.12.47.11,1.04,0,1.42-.27,2.98.04,4.35.04.62,0,1.17.08,1.79.13,1.1.02,2.76.03,3.78-.28.41-.49.27-1.56.41-2.07.02-.73-.09-1.69-.26-2.59-.17-.58-.75-.61-1.34-.71-.95-.14-1.82.02-2.76.07-1.65-.15-3.25-.04-4.86-.08-1.92-.17-3.83.28-5.74.08-.92-.08-2.2-.24-3.04.2-.12.15-.08.47-.05.79,0,.99-.06,2.01-.1,3.01-.24,3.6.11,7.37-.07,10.94-.2,2.97.35,6.03.04,9.01-.03,1.28-.39,2.6-.02,3.65.33.34,1.81.23,2.34.34,1.71-.07,3.27.02,5.03.06,1.07.05,2.27-.28,3.3-.04,1.31.22,2.66-.09,4-.19,1.29.09,2.69.42,3.83-.18.27-.34.07-1.4.05-2.02v-.14Z" fill="#fff004"/>
  <path d="M380.4,307.08c.07-1.03-.93-.93-1.7-.89-1.73-.35-3.39.16-5.14-.1-.61-.2-1.39,0-1.93,0-.29-.19-.92.11-1.08-.12-.39-.89-.13-2.3-.17-3.42-.18-1.38-.05-2.82.07-4.12-.13-4.66-.05-9.39.03-13.95,0-.19,0-.46-.1-.62-.2-.29-.72-.19-1.06-.22-1.5-.12-2.78-.15-4.27-.04-.48-.04-.98.04-1.24.5-.59,1.55-.21,3.98-.15,5.7.26,1.5-.06,2.92-.02,4.43-.26,1.86.07,3.49.08,5.3-.2,1.95-.27,3.92.02,5.9-.13,1.11-.21,2.2-.11,3.31.08.76-.09,1.73.18,2.42.55.44,1.48.2,2.16.36,1.19.13,2.65-.05,3.94-.14,1.77-.09,3.34.03,5.06.14,1.11-.11,2.47-.12,3.71.03.6-.02,1.56.19,1.86-.36.11-1.2-.06-2.74-.14-3.96v-.15Z" fill="#fff004"/>
  <path d="M402.91,311.4c.19-.08.31-.2.38-.36.22-.47.04-1.2.02-1.7-.1-1.31.07-2.76.19-4.08.11-1.09-.23-2.24-.12-3.3.08-.37-.08-.97.2-1.25.31-.31,1.1-.27,1.57-.15.87.08,1.67-.2,2.54-.08,1.26.26,2.61-.03,3.86-.14.22-.04.45-.1.46-.37.02-.93-.03-1.97.08-2.92.03-.58.09-1.34-.21-1.65-.74-.35-3.84-.26-4.96-.15-.78-.09-1.27.06-2.05-.09-.51-.09-1.18.17-1.35-.23-.17-.4-.05-1.75-.08-2.21-.02-1.45-.28-3.12.28-3.54.45-.43,1.58-.25,2.84-.18,2.01-.15,4.32.29,6.29-.06.32-.06.76-.1.83-.48-.04-.69-.1-1.91.02-2.65.06-.67.24-1.53-.19-1.94-.11-.11-.27-.18-.47-.22-2.01-.08-4.52-.26-6.53-.08-1.64.07-3.24-.18-4.88-.15-1.37.21-2.93.08-4.32.14-.97.11-.49.64-.64,1.74-.06,2.7-.1,5.01-.02,7.64-.13,2.3.28,4.67-.1,6.98-.12,2.26.36,4.44.09,6.74-.09.95-.03,1.89-.04,2.84.07.67-.17,1.3.05,1.77,1.05.47,2.45-.07,3.54.06.83-.05,1.79.2,2.64.06l.1-.03Z" fill="#fff004"/>
  <path d="M438.39,283.73c-1.62-.07-3.48-.26-5.15-.03-.97,0-1.85-.53-1.69.95.06,1.56.05,3.62.01,5.23.18,1.4.19,2.77-.05,4.13-.11,1.17.27,2.41.21,3.59,0,1.1-.05,2.08,0,3.18-.07.74-.03,1.31,0,2.06.01.9-.19,2.05-.09,2.87.12.57.14,1.24.03,1.82,0,1.12-.4,2.88.22,3.74.29.2.68.15,1.04.14,1.59-.16,3.05,0,4.66,0,.2-.02.5-.03.63-.18.28-.36.18-1.65.23-2.09-.28-2.48-.19-4.95-.09-7.42-.17-.79.02-1.76.09-2.54.06-1.24-.14-2.52.04-3.74-.15-1.29-.15-2.83-.08-4.09-.07-1.31-.09-2.43-.1-3.81-.04-1.19.44-2.56.14-3.75l-.07-.07Z" fill="#fff004"/>
  <path d="M482.79,306.1c.96-1.26,1.82-2.58,2.04-4.16.55-1.43.69-2.92.6-4.44.08-1.96-.27-4.06-.94-5.86-.89-1.33-1.45-2.56-2.69-3.62-.72-.63-1.29-1.55-2.04-2.17-1.09-.6-2.41-1.44-3.63-1.86-1.39-.18-2.75-.87-4.13-.94-1.99.06-3.97,0-5.87.66-1.14.29-2.11.44-2.89,1.16-1.88.92-3.56,2.41-4.82,4.1-.82,1.2-1.31,2.34-1.83,3.69-.71,1.31-.7,2.77-.75,4.26-.33,2.88.46,5.75,1.97,8.23,1.29,1.85,2.71,3.6,4.62,4.79,1.69,1.04,3.9,1.5,5.75,2.03,2.99.42,6.06-.05,8.86-1.27,1.39-.41,2.48-.97,3.48-2.01,1.05-.68,1.59-1.5,2.22-2.45l.08-.12ZM478.04,301.34c-.14.24-.66.87-.87,1.24-.22.39-.3.59-.77.92-.65.46-1.66,1.39-2.34,1.72-1.77.69-3.83,1.03-5.66.57-1.57-.56-3.04-1.27-4.01-2.73-1.57-2.4-2.58-5.62-1.49-8.42.41-1.21.93-2.34,2.01-3.13.41-.6.85-.88,1.54-1.22,1.07-.58,2.16-1.08,3.41-1.12.59-.02.75.14,1.35.15.47.04,1.06.02,1.51.12.52.15,1.25.4,1.81.55,1.83.91,3.31,3.12,3.83,5.07.13,2.15.35,4.09-.27,6.18l-.04.09Z" fill="#fff004"/>
  <path d="M523.94,310.48c-.57-.86-1.18-1.96-1.56-3.08-.82-1.72-2.07-3.45-2.55-5.3.02-.38.08-1.17.31-1.47.45-.36,1.11-.35,1.59-.88,1.08-.98,1.77-2.17,2.41-3.43.52-1.4.59-2.59.44-4.01-.35-2.17-1.12-4.51-2.7-6.11-1.18-.97-2.41-1.24-3.83-1.91-.88-.33-1.81-.29-2.76-.54-1.47-.33-2.93-.24-4.38-.14-2.47.21-4.86.04-7.33-.05-.84,0-.73.95-.75,1.54-.07,1.57.08,2.72.16,4.28.1.89-.17,1.67-.26,2.55-.11,1.07.14,2.21.14,3.27-.08.85.05,1.83.09,2.68-.07,2.22-.37,3.89-.03,6.04-.07.72-.13,1.24-.02,1.97.04.75-.11,1.44-.05,2.19.14,1.08-.21,2.36.34,3.24.93.61,2.2,0,3.23.02,1.12-.1,2.22.42,2.9-.26.36-.86-.08-1.92.01-2.86.03-1.53-.12-3.28.16-4.77.21-.43.77-1.08,1.28-1.2.95-.09,2.36.13,2.97.94.41.73.84,1.98,1.35,2.73,1.07,1.71,1.41,3.77,2.74,5.36.39.45.97.22,1.64.28,1.48-.15,2.89.07,4.37-.04.61-.11.46-.45.15-.93l-.06-.1ZM517.62,294.12c-.03.13-.16.89-.25,1.08-.29.52-.87.98-1.33,1.37-.5.39-1.43.33-2.03.44-.93.22-2.06.18-2.99.26-.43.01-.44.09-.65-.16-.3-.44-.89-.78-.91-1.36-.08-1.19.11-2.07,0-3.31-.03-.91-.11-1.73.14-2.49.14-.2,1.02-.68,1.22-.8.2-.1.56.06.82.06.27,0,.68.03,1.02-.03,1.19-.21,2.31.04,3.34.63.45.35,1.06.77,1.25,1.27.12.45.41.91.35,1.38-.05.57,0,1,.01,1.59v.08Z" fill="#fff004"/>
  <path d="M560.99,309.04c-.2-.98.59-2.96-.78-3.02-.94-.06-2.24.04-3.44.13-1.51-.16-3.06-.02-4.57-.09-.57,0-1.37.06-1.85-.05-.25-.08-.98.13-1.12-.06s.07-.77,0-1.14c-.15-.77.11-1.87.13-2.6.03-.46-.15-.94.05-1.39.07-.16-.06-.78.06-.93.15-.19.91-.11,1.33-.11,1.06-.1,2.18.09,3.21.12,1.26.02,2.56-.26,3.85-.05.34.03.77,0,.84-.4.17-1.01.18-2.1.09-3.15,0-.36,0-.78-.02-1.04.03-.76-1.62-.31-2.4-.36-1.53-.12-3.28-.16-4.91-.18-.4.03-.86.12-1.21.02-.24-.07-.73.11-.97-.09s-.14-1.14-.07-1.48c.21-1.06-.19-2.49.03-3.36.04-.17-.07-.65.02-.77.2-.12.47.11,1.04,0,1.42-.27,2.98.04,4.35.04.62,0,1.17.08,1.79.13,1.1.02,2.76.03,3.78-.28.41-.49.27-1.56.41-2.07.02-.73-.09-1.69-.26-2.59-.17-.58-.75-.61-1.34-.71-.95-.14-1.82.02-2.76.07-1.65-.15-3.25-.04-4.86-.08-1.92-.17-3.83.28-5.74.08-.92-.08-2.2-.24-3.04.2-.12.15-.08.47-.05.79,0,.99-.06,2.01-.1,3.01-.24,3.6.11,7.37-.07,10.94-.2,2.97.35,6.03.04,9.01-.03,1.28-.39,2.6-.02,3.65.33.34,1.81.23,2.34.34,1.71-.07,3.27.02,5.03.06,1.07.05,2.27-.28,3.3-.04,1.31.22,2.66-.09,4-.19,1.29.09,2.69.42,3.83-.18.27-.34.07-1.4.05-2.02v-.14Z" fill="#fff004"/>
</svg>